Coordinates
version=1
nRows=11
nColumns=42
inDegrees=yes

Units are S.I. units (second, meters, Newtons, ...)
If the header above contains a line with 'inDegrees', this indicates whether rotational values are in degrees (yes) or radians (no).

endheader
time	pelvis_tilt	pelvis_list	pelvis_rotation	pelvis_tx	pelvis_ty	pelvis_tz	hip_flexion_r	hip_adduction_r	hip_rotation_r	knee_angle_r	knee_adduction_r	knee_angle_r_beta	ankle_angle_r	subtalar_angle_r	mtp_angle_r	hip_flexion_l	hip_adduction_l	hip_rotation_l	knee_angle_l	knee_adduction_l	knee_angle_l_beta	ankle_angle_l	subtalar_angle_l	mtp_angle_l	lumbar_extension	lumbar_bending	lumbar_rotation	arm_flex_r	arm_add_r	arm_rot_r	elbow_flex_r	pro_sup_r	wrist_flex_r	wrist_dev_r	arm_flex_l	arm_add_l	arm_rot_l	elbow_flex_l	pro_sup_l	wrist_flex_l	wrist_dev_l
      0.55000000	     18.17673370	     -3.74982026	     -8.04139549	      0.00821863	      0.95694437	     -0.02633082	    -29.68753359	      0.79824349	    -20.99461766	     25.48965493	     -9.22772446	      0.44487840	     24.05827384	     37.30706391	     -8.28528141	     15.13895424	     -3.64875695	    -26.90613572	     24.14499673	     -7.78301391	      0.42140969	      2.43100696	     18.81512487	     -8.28528141	    -40.14512892	      0.98027784	     12.68082113	     14.39913430	    -20.10856251	      4.30930796	     61.43832534	     90.00000001	      0.00000000	      0.00000000	     -4.27077641	    -14.06558095	     -4.10878804	     47.59951710	     90.00000001	      0.00000000	      0.00000000
      0.56000000	     18.04983584	     -3.57110817	     -8.19612285	      0.02327425	      0.95637286	     -0.02644144	    -29.70018820	      0.27211389	    -20.62273641	     26.90263400	     -9.44320966	      0.46953954	     22.17831325	     37.14080972	     -8.27066044	     15.26391548	     -3.24042968	    -26.37779187	     25.51805329	     -8.14976403	      0.44537405	      2.33312432	     17.70573792	     -8.27066044	    -39.85674706	      0.56885514	     12.54955743	     14.04274593	    -19.92155884	      4.14016764	     61.23920150	     90.00000001	      0.00000000	      0.00000000	     -4.02885170	    -13.99643245	     -4.01743392	     47.32940087	     90.00000001	      0.00000000	      0.00000000
      0.57000000	     17.98233932	     -3.33428056	     -8.19812250	      0.03830936	      0.95635529	     -0.02673173	    -29.69433604	     -0.20230051	    -20.02967946	     28.44711902	     -9.56714727	      0.49649589	     20.08435247	     36.52375457	     -8.22124495	     15.13008943	     -2.57216817	    -24.28399511	     26.76259040	     -7.95347173	      0.46709532	      1.72067272	     14.11534148	     -8.22124495	    -39.63715167	      0.16891899	     12.33128763	     13.59514067	    -19.56403996	      3.46120972	     60.99502382	     90.00000001	      0.00000000	      0.00000000	     -3.55369101	    -13.96881804	     -3.68851727	     46.72031094	     90.00000001	      0.00000000	      0.00000000
      0.58000000	     18.07355331	     -3.05093002	     -8.21574355	      0.05356769	      0.95676201	     -0.02706643	    -29.68882673	     -0.76644424	    -19.56594545	     30.23925499	     -9.78761884	      0.52777456	     17.53852823	     35.91584712	     -8.20928347	     14.88334135	     -1.97180415	    -23.58139072	     28.11071198	     -8.20348343	      0.49062448	      1.65635348	     13.17105175	     -8.20928347	    -39.56149490	     -0.30717613	     11.99030869	     13.12265779	    -19.36060496	      3.34745292	     60.79512756	     90.00000001	      0.00000000	      0.00000000	     -3.25219132	    -13.99086719	     -3.58696551	     46.55859416	     90.00000001	      0.00000000	      0.00000000
      0.59000000	     18.19695650	     -2.77534953	     -8.11161525	      0.06868815	      0.95773511	     -0.02745457	    -29.66660517	     -1.14816520	    -18.39141461	     32.14401554	     -9.74625024	      0.56101891	     14.90147816	     33.86150295	     -8.16150405	     14.37542021	     -1.24759065	    -21.36585091	     29.28367982	     -7.77053246	      0.51109663	      1.02747349	      9.63653598	     -8.16150405	    -39.53412480	     -0.73318072	     11.66908482	     12.64394637	    -18.99171825	      2.65855723	     60.59092274	     90.00000001	      0.00000000	      0.00000000	     -2.69974882	    -14.04154470	     -3.16386921	     46.04172848	     90.00000001	      0.00000000	      0.00000000
      0.60000000	     18.45501448	     -2.46889338	     -7.97930446	      0.08386175	      0.95911012	     -0.02790644	    -29.63078804	     -1.54799665	    -17.19197880	     34.27215010	     -9.68245110	      0.59816186	     12.02498484	     31.50567905	     -8.12356764	     13.71295194	     -0.53625895	    -20.05013160	     30.37912858	     -7.66193337	      0.53021582	      0.89404151	      7.90741787	     -8.12356764	    -39.63863870	     -1.18616145	     11.22583111	     12.14294853	    -18.74280046	      2.27629980	     60.40413865	     90.00000001	      0.00000000	      0.00000000	     -2.23740762	    -14.12419001	     -2.89402969	     45.79534510	     90.00000001	      0.00000000	      0.00000000
      0.61000000	     18.90736412	     -2.07878198	     -7.86448391	      0.09908176	      0.96086966	     -0.02839548	    -29.58652141	     -2.12582273	    -16.56955890	     36.61480724	     -9.85551664	      0.63904894	      9.90001943	     30.68972472	     -8.11820519	     12.80231190	      0.18582647	    -19.49643199	     31.41094144	     -7.72099320	      0.54822435	      1.11157745	      7.67270767	     -8.11820519	    -39.93973204	     -1.73970294	     10.70305000	     11.66173360	    -18.55010323	      2.22695005	     60.23970050	     90.00000001	      0.00000000	      0.00000000	     -1.86095725	    -14.20073135	     -2.83482818	     45.77317948	     90.00000001	      0.00000000	      0.00000000
      0.62000000	     19.28129832	     -1.83875088	     -7.67535490	      0.11397725	      0.96323520	     -0.02881855	    -29.48723835	     -2.22240552	    -13.81986527	     39.10256545	     -8.96504621	      0.68246851	      6.40812886	     24.36100757	     -8.08110725	     11.71357714	      0.82385998	    -18.04646937	     32.03713498	     -7.33819760	      0.55915349	      1.19004731	      5.57703276	     -8.08110725	    -40.21972895	     -2.10538616	     10.26975762	     11.09922923	    -18.17151772	      1.54976646	     60.10883112	     90.00000001	      0.00000000	      0.00000000	     -1.23727125	    -14.41248240	     -2.33620832	     45.52263161	     90.00000001	      0.00000000	      0.00000000
      0.63000000	     19.80046536	     -1.54160511	     -7.50039976	      0.12879681	      0.96583045	     -0.02934216	    -29.31428634	     -2.48089347	    -11.86013066	     41.72373323	     -8.35577531	      0.72821652	      3.77908548	     20.20171789	     -8.04859429	     10.43435400	      1.49032693	    -17.38633530	     32.52671755	     -7.28077680	      0.56769832	      1.63847061	      4.96912863	     -8.04859429	    -40.65338101	     -2.51011754	      9.75486036	     10.61490595	    -17.93619719	      1.22601507	     59.99991880	     90.00000001	      0.00000000	      0.00000000	     -0.74252482	    -14.57654488	     -2.03081081	     45.56454944	     90.00000001	      0.00000000	      0.00000000
      0.64000000	     20.37565814	     -1.21662136	     -7.33379391	      0.14348818	      0.96861998	     -0.02981796	    -29.01870350	     -2.76294798	    -10.26707682	     44.42786911	     -7.88252489	      0.77541260	      1.27794949	     16.42094563	     -8.02726671	      8.99363223	      2.14492801	    -17.01822442	     32.81642951	     -7.25434143	      0.57275474	      2.35949977	      4.93429479	     -8.02726671	    -41.14915381	     -2.94481694	      9.19306375	     10.15915646	    -17.71324423	      0.98027703	     59.92270609	     90.00000001	      0.00000000	      0.00000000	     -0.26785062	    -14.77830697	     -1.80056457	     45.70216063	     90.00000001	      0.00000000	      0.00000000
      0.65000000	     20.76393866	     -0.94009792	     -7.24146603	      0.15785926	      0.97141683	     -0.03025829	    -28.36229255	     -2.95712779	     -7.95237842	     47.30860762	     -6.89973258	      0.82569097	     -0.53950349	     11.97433440	     -7.99898097	      7.68445261	      2.69205216	    -16.96638830	     32.91420595	     -7.32151588	      0.57446126	      3.12813316	      5.16844362	     -7.99898097	    -41.48453295	     -3.32049181	      8.75671825	      9.70559512	    -17.52211544	      0.67906962	     59.77927304	     90.00000001	      0.00000000	      0.00000000	      0.24492067	    -14.97587910	     -1.50048677	     45.89604803	     90.00000001	      0.00000000	      0.00000000
